<svg width="64" height="64" viewBox="0 0 64 64" fill="none" xmlns="http://www.w3.org/2000/svg">
<path d="M32 8.08398C24.0039 8.08398 17.498 14.5899 17.498 22.5864C17.498 30.5829 24.0039 37.0889 32 37.0889C39.9961 37.0889 46.502 30.583 46.502 22.5865C46.502 14.59 39.9961 8.08398 32 8.08398ZM32 35.0889C25.1064 35.0889 19.498 29.4805 19.498 22.5865C19.498 15.6925 25.1064 10.084 32 10.084C38.8936 10.084 44.502 15.6924 44.502 22.5864C44.502 29.4804 38.8936 35.0889 32 35.0889Z" fill="#902815"/>
<path d="M51.3076 17.5796C50.6924 16.7564 50.1113 15.978 49.7949 15.2153C49.457 14.4004 49.3056 13.4048 49.1465 12.3506C48.8711 10.5283 48.586 8.6445 47.2637 7.3228C45.9414 6.0005 44.0576 5.7154 42.2354 5.44C41.1817 5.2803 40.1856 5.1295 39.3702 4.7916C38.6085 4.4757 37.8311 3.8946 37.0079 3.2794C35.5771 2.2109 33.9561 1 32 1C30.0439 1 28.4229 2.2109 26.9932 3.2793C26.17 3.8945 25.3916 4.4756 24.6299 4.7915C23.8145 5.1299 22.8184 5.2803 21.7637 5.4399C19.9424 5.7153 18.0586 6.0004 16.7364 7.3222C15.4141 8.6445 15.129 10.5283 14.8536 12.3505C14.6934 13.4047 14.5431 14.4003 14.2052 15.2157C13.8888 15.9779 13.3077 16.7562 12.6925 17.5795C11.6251 19.0097 10.4142 20.6308 10.4142 22.5863C10.4142 24.5418 11.6251 26.1625 12.6925 27.5926C13.3077 28.4158 13.8888 29.1942 14.2052 29.9569C14.5431 30.7718 14.6945 31.7674 14.8536 32.8216C15.129 34.6434 15.4141 36.5272 16.7364 37.8494C17.5067 38.6197 18.4698 39.0333 19.4981 39.3028V59.702C19.4981 60.9354 20.1778 62.0555 21.2715 62.6249C22.3653 63.1923 23.6738 63.1063 24.6836 62.3983C24.751 62.3514 24.8125 62.2958 24.8662 62.2333L31.3467 54.7265C31.749 54.4921 32.251 54.4921 32.6533 54.7265L39.1338 62.2333C39.1875 62.2958 39.249 62.3515 39.3164 62.3983C39.8828 62.7958 40.543 62.9979 41.207 62.9979C41.7265 62.9979 42.248 62.8739 42.7285 62.6249C43.8223 62.0556 44.5019 60.9354 44.5019 59.702V39.303C45.5302 39.0335 46.4933 38.62 47.2636 37.8496C48.5859 36.5283 48.871 34.6445 49.1464 32.8223C49.3066 31.7676 49.4569 30.772 49.7948 29.9566C50.1112 29.1944 50.6923 28.4161 51.3075 27.5928C52.3749 26.1626 53.5858 24.542 53.5858 22.5865C53.5858 20.631 52.375 19.0098 51.3076 17.5796ZM42.502 59.7021C42.502 60.1943 42.2413 60.623 41.8057 60.8505C41.4004 61.0605 40.9414 61.0478 40.5557 60.8192L34.0743 53.3124C34.0206 53.2499 33.9591 53.1942 33.8917 53.1474C32.7608 52.3525 31.2394 52.3525 30.1085 53.1474C30.0411 53.1943 29.9796 53.2499 29.9259 53.3124L23.4445 60.8192C23.0597 61.0487 22.6007 61.0614 22.1945 60.8505C21.759 60.623 21.4982 60.1942 21.4982 59.7021V39.6913C21.5871 39.7048 21.6762 39.719 21.7648 39.7324C22.8185 39.8926 23.8146 40.0429 24.63 40.3808C25.3917 40.6972 26.17 41.2783 26.9933 41.8935C28.423 42.9619 30.0441 44.1728 32.0001 44.1728C33.9552 44.1728 35.5763 42.9619 37.0069 41.8935C37.8301 41.2783 38.6085 40.6972 39.3702 40.3808C40.1856 40.0429 41.1817 39.8925 42.2354 39.7324C42.324 39.719 42.4131 39.7048 42.502 39.6913V59.7021V59.7021ZM49.7051 26.396C49.043 27.2817 48.3594 28.1973 47.9473 29.1909C47.5157 30.2314 47.3399 31.3965 47.169 32.5229C46.9317 34.0947 46.7071 35.5781 45.8497 36.4355C44.9923 37.2929 43.5079 37.5175 41.9366 37.7548C40.8096 37.9257 39.6446 38.1015 38.6046 38.5331C37.6114 38.9452 36.6954 39.6298 35.8097 40.2909C34.5146 41.2588 33.291 42.1729 32 42.1729C30.708 42.1729 29.4854 41.2588 28.1904 40.2911C27.3047 39.63 26.3886 38.9454 25.3955 38.5333C24.3555 38.1017 23.1904 37.9259 22.0635 37.755C20.4922 37.5177 19.0078 37.2931 18.1504 36.4357C17.293 35.5783 17.0684 34.0939 16.8311 32.5226C16.6602 31.3961 16.4844 30.2311 16.0528 29.1911C15.6407 28.1974 14.9571 27.2819 14.295 26.3962C13.3282 25.1008 12.4141 23.8776 12.4141 22.5866C12.4141 21.2951 13.3282 20.072 14.295 18.7765C14.9571 17.8908 15.6407 16.9752 16.0528 15.9816C16.4844 14.9411 16.6602 13.776 16.8311 12.6496C17.0684 11.0783 17.293 9.5939 18.1504 8.7365C19.0078 7.8796 20.4922 7.655 22.0635 7.4177C23.1895 7.2473 24.3545 7.071 25.3955 6.6394C26.3887 6.2273 27.3047 5.5432 28.1894 4.8821C29.4854 3.9141 30.709 3 32 3C33.292 3 34.5156 3.9141 35.8105 4.8818C36.6962 5.5429 37.6113 6.227 38.6044 6.6391C39.6444 7.0707 40.8095 7.2465 41.9364 7.4174C43.5077 7.6547 44.9921 7.8793 45.8495 8.7367C46.7069 9.5936 46.9315 11.078 47.1688 12.6498C47.3397 13.7763 47.5155 14.9413 47.9471 15.9813C48.3592 16.975 49.0428 17.8905 49.7049 18.7762C50.6717 20.0716 51.5858 21.2948 51.5858 22.5863C51.5859 23.8774 50.6719 25.1006 49.7051 26.396Z" fill="#902815"/>
<path d="M36.8809 18.1216L29.6065 24.9868L27.0733 22.8721C26.6495 22.5176 26.0176 22.5762 25.6651 22.9986C25.3106 23.4229 25.3682 24.0533 25.7921 24.4073L29.0069 27.0914C29.1924 27.2467 29.42 27.3238 29.6475 27.3238C29.8946 27.3238 30.1416 27.2325 30.334 27.0509L38.2539 19.5758C38.6553 19.1969 38.6738 18.5641 38.2949 18.1622C37.9141 17.7603 37.2832 17.7417 36.8809 18.1216Z" fill="#902815"/>
</svg>
