<svg width="64" height="64" viewBox="0 0 64 64" fill="none" xmlns="http://www.w3.org/2000/svg">
<path d="M62.9668 21.2471C62.7451 19.6133 61.3311 17.9004 59.2002 17.958H29.2051L22.8672 11.4287C22.4678 11.0127 22.2227 10.8848 21.584 10.8808L6.1611 10.8838C3.7451 10.8838 2.4814 12.8154 2.4814 14.7236C2.4814 16.6328 3.7451 18.5644 6.1611 18.5644H7.026C6.6841 19.1526 6.4736 19.8266 6.4736 20.5546V28.2148H6.2822C3.3203 28.2148 1 30.5352 1 33.4971V41.961C1 43.4229 2.2334 44.6583 3.6924 44.6583H5.3169C5.8182 49.4075 9.8458 53.1212 14.7257 53.1212C19.6077 53.1212 23.6365 49.4086 24.139 44.6603H38.2957C38.798 49.4086 42.8249 53.1212 47.7041 53.1212C52.9219 53.1212 57.167 48.8761 57.167 43.6583C57.167 40.4949 55.6027 37.6963 53.2135 35.976L59.3363 25.2602L60.291 25.0108C62.4199 24.4785 63.1689 22.7373 62.9668 21.2471ZM29.3145 18.0977C29.3526 18.1221 29.3877 18.1485 29.4161 18.1768L28.714 18.8887L29.3145 18.0977ZM8.4736 20.5547C8.4736 19.457 9.3662 18.5645 10.4629 18.5645H17.0733L22.9754 28.2149H17V24.9376C17 24.3849 16.5527 23.9376 16 23.9376C15.4473 23.9376 15 24.3849 15 24.9376V28.2149H8.4736V20.5547ZM3 41.9609V33.497C3 31.6562 4.4414 30.2148 6.2822 30.2148H24.1985L25.7128 32.6908L21.8481 37.4406C20.1113 35.4536 17.5658 34.1904 14.7255 34.1904C9.8454 34.1904 5.8178 37.9061 5.3167 42.6582H3.6924C3.3496 42.6582 3 42.3066 3 41.9609ZM14.7256 51.1211C10.6104 51.1211 7.2627 47.7734 7.2627 43.6582C7.2627 39.54 10.6104 36.1904 14.7256 36.1904C18.8403 36.1904 22.1874 39.5347 22.1929 43.6481C22.1928 43.6524 22.1905 43.6559 22.1905 43.6601C22.1905 43.6641 22.1927 43.6674 22.1928 43.6713C22.1855 47.7805 18.8393 51.1211 14.7256 51.1211ZM55.167 43.6582C55.167 47.7734 51.8193 51.1211 47.7041 51.1211C43.5889 51.1211 40.2412 47.7734 40.2412 43.6582C40.2412 39.54 43.5889 36.1904 47.7041 36.1904C51.8193 36.1904 55.167 39.54 55.167 43.6582ZM51.4786 34.9813C50.3211 34.4753 49.0459 34.1904 47.7041 34.1904C42.8233 34.1904 38.7952 37.9071 38.295 42.6601H24.1396C24.0065 41.3966 23.6251 40.2061 23.0433 39.1394L27.5889 33.5528L56.629 25.9672L51.4786 34.9813ZM59.7959 23.0732L27.3574 31.5459L18.4873 17.043C18.3057 16.7461 17.9824 16.5645 17.6338 16.5645H6.1611C4.5283 16.5645 4.4814 14.9122 4.4814 14.7237C4.4814 14.5362 4.5283 12.8839 6.1611 12.8839H21.3847L21.4911 12.8819L27.9218 19.5089C28.204 19.8058 28.4804 19.9757 29.0663 19.9581H59.2245C59.2401 19.9571 59.2548 19.9571 59.2694 19.9571C60.246 19.9571 60.8807 20.754 60.9842 21.5167C61.0469 21.9717 60.9756 22.7783 59.7959 23.0732Z" fill="#902815"/>
<path d="M47.7041 38.8721C45.0654 38.8721 42.9189 41.0196 42.9189 43.6582C42.9189 46.2939 45.0654 48.4385 47.7041 48.4385C50.3428 48.4385 52.4902 46.294 52.4902 43.6582C52.4902 41.0195 50.3428 38.8721 47.7041 38.8721ZM47.7041 46.4385C46.168 46.4385 44.9189 45.1914 44.9189 43.6582C44.9189 42.1221 46.1679 40.8721 47.7041 40.8721C49.2403 40.8721 50.4902 42.1221 50.4902 43.6582C50.4902 45.1914 49.2402 46.4385 47.7041 46.4385Z" fill="#902815"/>
<path d="M14.7256 38.8721C12.0899 38.8721 9.94531 41.0196 9.94531 43.6582C9.94531 46.2939 12.0898 48.4385 14.7256 48.4385C17.3643 48.4385 19.5108 46.294 19.5108 43.6582C19.5107 41.0195 17.3643 38.8721 14.7256 38.8721ZM14.7256 46.4385C13.1924 46.4385 11.9453 45.1914 11.9453 43.6582C11.9453 42.1221 13.1924 40.8721 14.7256 40.8721C16.2617 40.8721 17.5108 42.1221 17.5108 43.6582C17.5107 45.1914 16.2617 46.4385 14.7256 46.4385Z" fill="#902815"/>
</svg>
