<svg width="64" height="64" viewBox="0 0 64 64" fill="none" xmlns="http://www.w3.org/2000/svg">
<path d="M42.4296 30.1672C42.4289 30.167 42.4284 30.1667 42.4284 30.1667C42.4272 30.1665 42.4266 30.1664 42.426 30.1663C42.4239 30.1658 42.422 30.1651 42.4199 30.1647C42.4185 30.1644 42.4172 30.1649 42.4157 30.1646C41.8896 30.042 41.3474 29.9544 40.7873 29.8954C41.2661 28.7481 41.5302 27.5124 41.5302 26.2404V24.5275H42.7636C44.2636 24.5275 45.4384 23.3864 45.4384 21.9294V20.0017C45.4384 19.044 44.9272 18.23 44.1555 17.7782C44.496 17.2565 44.703 16.649 44.703 16.0012C44.703 14.5319 43.6768 13.2585 42.2997 12.7959V9.6001C42.2997 6.0669 39.3573 3.1831 35.7079 3.1021C35.6592 1.897 34.709 1 33.46 1H30.6397C29.3907 1 28.4405 1.897 28.3917 3.1021C24.8028 3.1866 21.7999 6.128 21.7999 9.6001V12.731C20.3197 13.1279 19.1905 14.4578 19.1905 16.001C19.1905 16.6657 19.405 17.2897 19.7614 17.8202C19.0349 18.2806 18.5616 19.0762 18.5616 20.0015V21.9292C18.5616 23.3862 19.7345 24.5273 21.2315 24.5273H22.4698V26.2402C22.4698 27.5129 22.734 28.7494 23.2135 29.8972C22.632 29.9596 22.0569 30.0517 21.495 30.1859C21.4945 30.186 21.4938 30.1858 21.4933 30.186C21.4924 30.1862 21.4917 30.1865 21.4908 30.1867C21.4894 30.1871 21.4879 30.1871 21.4865 30.1874C21.4849 30.1878 21.4836 30.1887 21.482 30.1891C15.0624 31.6859 10.5803 37.3427 10.5803 43.9501V59C10.5803 61.2056 12.3742 63 14.5803 63H49.4201C51.6262 63 53.4201 61.2056 53.4201 59V43.9502C53.4199 37.4037 48.7985 31.6089 42.4296 30.1672ZM36.4003 37.8556C36.3509 37.8129 36.3119 37.7614 36.253 37.728C36.1931 37.6942 36.1281 37.6872 36.0651 37.6668L34.1368 35.5234C36.38 35.0097 38.3663 33.6948 39.7237 31.8178C39.9815 31.8271 40.2374 31.8442 40.4913 31.8696L36.4003 37.8556ZM27.8623 37.8223C27.7595 37.8783 27.6785 37.9563 27.6045 38.0387L23.419 31.8809C23.6983 31.8511 23.9835 31.8311 24.2764 31.8199C25.6797 33.7672 27.7383 35.0997 30.0703 35.5767L28.0251 37.7718C27.9709 37.7902 27.9142 37.7938 27.8623 37.8223ZM24.4697 19.3984H39.5302V26.2402C39.5302 27.6855 39.1249 29.0786 38.3593 30.2685L38.3587 30.2701C38.358 30.2711 38.3571 30.2718 38.3564 30.2728C37.1806 32.119 35.2724 33.3612 33.1005 33.6844C32.5126 33.7855 31.7743 33.7982 31.0878 33.7166C28.8485 33.4495 26.8642 32.1946 25.6435 30.2737C25.6431 30.2731 25.6424 30.2727 25.642 30.2721C25.6413 30.2709 25.6413 30.2695 25.6405 30.2684C24.8749 29.0785 24.4696 27.6854 24.4696 26.2401V19.3984H24.4697ZM33.8203 40.0005H30.1894L29.6329 38.9804L32.1377 36.2911L34.4582 38.871L33.8203 40.0005ZM30.3193 42.0005H33.6757L35.6308 52.4136C35.6035 52.4473 35.5722 52.4834 35.539 52.5249L32.832 55.7231C32.416 56.1713 31.5566 56.1425 31.1963 55.7548L28.543 52.6254L28.4532 52.515C28.421 52.4754 28.3917 52.4413 28.3653 52.4095L30.3193 42.0005ZM43.4385 21.9292C43.4385 22.2759 43.1543 22.5273 42.7637 22.5273H41.5303V19.3984H42.7637C43.1485 19.3984 43.4385 19.6577 43.4385 20.0014V21.9292ZM28.5242 5.1026L29.2314 9.9419C29.3037 10.4395 29.7314 10.7974 30.2197 10.7974C30.2676 10.7974 30.3164 10.794 30.3652 10.7867C30.9121 10.7071 31.29 10.1993 31.2099 9.6529L30.3896 4.0396V3.2002C30.3896 3.1304 30.3896 3 30.6396 3H33.46C33.71 3 33.71 3.1304 33.71 3.2002V4.0596L32.8926 9.6529C32.8125 10.1993 33.1905 10.7071 33.7373 10.7867C33.7861 10.794 33.835 10.7974 33.8828 10.7974C34.3711 10.7974 34.7988 10.4395 34.8711 9.9419L35.5783 5.1029C38.1407 5.1183 40.2999 7.1699 40.2999 9.6001V12.5991H23.7999V9.6001C23.7998 7.1689 25.9605 5.1165 28.5242 5.1026ZM22.6943 14.5991H22.7949C22.7966 14.5991 22.798 14.6001 22.7997 14.6001C22.8014 14.6001 22.8028 14.5991 22.8045 14.5991H41.1942C41.9979 14.5991 42.703 15.2544 42.703 16.001C42.703 16.7456 41.9979 17.3985 41.1942 17.3985H40.8837H23.1162H22.6943C21.8935 17.3985 21.1904 16.7457 21.1904 16.001C21.1904 15.2544 21.8936 14.5991 22.6943 14.5991ZM21.2314 22.5273C20.8437 22.5273 20.5615 22.2758 20.5615 21.9292V20.0015C20.5615 19.6519 20.8437 19.3985 21.2314 19.3985H22.4697V22.5274H21.2314V22.5273ZM51.4199 59C51.4199 60.103 50.5224 61 49.4199 61H46.4804V43.7998C46.4804 43.2476 46.0331 42.7998 45.4804 42.7998C44.9277 42.7998 44.4804 43.2476 44.4804 43.7998V61H19.5195V43.7998C19.5195 43.2476 19.0722 42.7998 18.5195 42.7998C17.9668 42.7998 17.5195 43.2476 17.5195 43.7998V61H14.58C13.4775 61 12.58 60.103 12.58 59V43.9502C12.58 38.5021 16.1335 33.8156 21.2954 32.3149L26.4726 39.9321C26.665 40.2148 26.9785 40.3701 27.3007 40.3701C27.4589 40.3701 27.6191 40.3325 27.7675 40.2539L27.986 40.1383L28.4681 41.0219L26.3994 52.0434C26.2109 52.9316 26.5791 53.3823 26.9043 53.7802L29.6992 57.0795C30.2822 57.7118 31.1201 58.0746 31.998 58.0746C32.8779 58.0746 33.7177 57.7118 34.3291 57.0477L37.0137 53.8812L37.0889 53.7879C37.4151 53.3885 37.7842 52.9354 37.6006 52.0662L35.5305 41.0403L36.1119 40.0109L36.2374 40.0764C36.6886 40.3113 37.2423 40.1721 37.5255 39.7536L42.6244 32.2908C47.7568 33.7577 51.4201 38.5509 51.4201 43.9499V59H51.4199Z" fill="#902815"/>
</svg>
