<svg width="64" height="64" viewBox="0 0 64 64" fill="none" xmlns="http://www.w3.org/2000/svg">
<path d="M61.5942 9.61723H60.8768L47.0908 1.14803C46.8501 1.00053 46.5586 0.96053 46.2866 1.04013L8.9751 11.9575C8.9626 11.9612 8.9541 11.9709 8.9418 11.975C8.8634 12.0011 8.7943 12.0446 8.7243 12.0894C8.6867 12.1136 8.644 12.1295 8.6104 12.1581C8.6052 12.1625 8.5983 12.164 8.5932 12.1685L2.3022 17.7354C1.4951 18.3663 1.1909 19.5596 1.562 20.6363C1.875 21.5445 2.5903 22.1085 3.4292 22.1085H10.21V35.1144C10.21 36.2858 11.0616 37.1359 12.2354 37.1359H12.9727V41.0456C12.9727 41.5978 13.4205 42.0456 13.9727 42.0456C15.1128 42.0456 16.0406 42.9719 16.0406 44.1101C16.0406 45.1921 15.0548 46.178 13.9727 46.178C12.8321 46.178 11.9043 45.2503 11.9043 44.1101C11.9043 43.5579 11.4565 43.1101 10.9043 43.1101C10.3521 43.1101 9.9043 43.5579 9.9043 44.1101C9.9043 46.3533 11.7295 48.178 13.9727 48.178C16.1778 48.178 18.0406 46.3152 18.0406 44.1101C18.0406 42.2136 16.734 40.6164 14.9727 40.1697V37.136H15.9146C17.086 37.136 17.9361 36.2859 17.9361 35.1145V22.1084H39.5518V24.8926C39.5518 26.2182 40.4095 27.3369 41.5948 27.753V55.3066C40.9131 55.385 40.3378 55.7845 39.9869 56.5039L38.4542 60.1758C38.1808 60.8154 38.2408 61.5347 38.6144 62.1001C38.9865 62.6636 39.6144 63 40.2946 63H53.021C53.7012 63 54.3291 62.6636 54.7012 62.1001C55.0747 61.5347 55.1348 60.8154 54.8653 60.1841L53.3048 56.4419C52.9806 55.7936 52.4282 55.406 51.7735 55.3135V27.753C52.9587 27.3368 53.816 26.2182 53.816 24.8926V22.1084H55.3097C55.4583 23.3123 56.2317 24.123 57.2999 24.123H60.5728C61.7061 24.123 62.5943 23.0512 62.5943 21.6835V10.6172C62.5942 10.0649 62.1465 9.61723 61.5942 9.61723ZM38.3765 20.1084L45.751 14.199L53.1255 20.1084H38.3765ZM55.2783 19.2705L48.5981 13.9175H55.2783V19.2705ZM42.9038 13.9175L35.835 19.582L28.7662 13.9175H42.9038ZM42.1439 11.9175L46.5674 4.04203L50.9909 11.9175H42.1439ZM39.8496 11.9175H16.2349L44.4941 3.64873L39.8496 11.9175ZM23.0719 13.9175L15.8786 19.682L11.5602 13.9175H23.0719V13.9175ZM25.9189 14.199L33.2934 20.1084H18.5448L25.9189 14.199ZM55.2886 11.9175H53.2852L49.3255 4.86803L57.0923 9.63943C56.0551 9.74763 55.3389 10.6434 55.2886 11.9175ZM3.4063 19.6724C3.4107 19.5078 3.46 19.3692 3.5811 19.272L9.2898 14.2226L13.6991 20.1084H3.5103C3.4619 20.0352 3.4009 19.873 3.4063 19.6724ZM12.21 35.1143V33.4566H15.9172L15.9146 35.1358L12.21 35.1143ZM15.9202 31.4565H12.21V22.1084H15.9345L15.9202 31.4565ZM43.5947 51.1794L48.1605 55.2739H43.5947V51.1794ZM44.0928 48.9395L49.7735 43.8447V54.034L44.0928 48.9395ZM43.5947 46.6993V36.51L49.2756 41.6045L43.5947 46.6993ZM44.0923 34.27L49.7735 29.1755V39.3646L44.0923 34.27ZM43.5947 32.03V27.9355H48.1605L43.5947 32.03ZM53.021 61L40.2964 60.9536L41.8267 57.2739L42.5946 57.2738L42.5948 57.2739H50.7735C50.7743 57.2739 50.775 57.2735 50.7758 57.2735L51.4869 57.2734L53.021 61ZM51.8159 24.8926C51.8159 25.4678 51.3481 25.9356 50.7734 25.9356H42.5947C42.0195 25.9356 41.5517 25.4678 41.5517 24.8926V22.1084H51.8159V24.8926V24.8926ZM60.5942 21.6836C60.5942 21.9263 60.5219 22.0664 60.478 22.124L57.3808 22.1562C57.3544 22.1284 57.2783 21.9819 57.2783 21.6835V12.057C57.2783 11.7689 57.3491 11.6219 57.3052 11.6171H60.5943V21.6836H60.5942Z" fill="#902815"/>
</svg>
